<svg id="visual" viewBox="0 0 900 600" width="900" height="600" xmlns="http://www.w3.org/2000/svg" xmlns:xlink="http://www.w3.org/1999/xlink" version="1.1"><rect x="0" y="0" width="900" height="600" fill="#ffffff"></rect><path d="M709 600L709.8 585.7C710.7 571.3 712.3 542.7 691.8 514.2C671.3 485.7 628.7 457.3 624.5 428.8C620.3 400.3 654.7 371.7 681.2 343C707.7 314.3 726.3 285.7 732.7 257C739 228.3 733 199.7 727.7 171.2C722.3 142.7 717.7 114.3 719.8 85.8C722 57.3 731 28.7 735.5 14.3L740 0L900 0L900 14.3C900 28.7 900 57.3 900 85.8C900 114.3 900 142.7 900 171.2C900 199.7 900 228.3 900 257C900 285.7 900 314.3 900 343C900 371.7 900 400.3 900 428.8C900 457.3 900 485.7 900 514.2C900 542.7 900 571.3 900 585.7L900 600Z" fill="#f78629" stroke-linecap="round" stroke-linejoin="miter"></path></svg>